<?xml version="1.0" encoding="utf-8"?>
<!-- Generator: Adobe Illustrator 16.0.0, SVG Export Plug-In . SVG Version: 6.00 Build 0)  -->
<!DOCTYPE svg PUBLIC "-//W3C//DTD SVG 1.1//EN" "http://www.w3.org/Graphics/SVG/1.1/DTD/svg11.dtd">
<svg version="1.1" id="Layer_1" xmlns="http://www.w3.org/2000/svg" xmlns:xlink="http://www.w3.org/1999/xlink" x="0px" y="0px"
	 width="158px" height="572.667px" viewBox="0 0 158 572.667" enable-background="new 0 0 158 572.667" xml:space="preserve">
<path id="Logo" fill="#FFFFFF" d="M153.535,45.005c-1.742-1.854-4.229-2.08-7-2.08h-0.236c-2.32-2.557-5.533-4.131-8.977-4.399
	c-3.5-0.228-6.363-0.226-8.836,0.831c0.084-0.669,0.152-1.547,0.209-2.225c0.527,0.176,1.082,0.246,1.636,0.211
	c3.067,0,6.287-2.584,6.567-8.249c0.133-3.125-0.381-5.411-1.485-6.562c-0.499-0.547-1.202-0.861-1.942-0.867
	c-1.646,0-3.188,1.443-4.395,4.055c0-0.286-0.008-0.539-0.012-0.769c-0.008-0.479-0.017-0.872-0.017-1.314
	c0-1.104-0.054-1.73-1.138-1.73c-0.409,0.009-0.801,0.181-1.081,0.479c-0.461,0.535-0.683,1.237-0.604,1.94
	c0.025,1.383,0.029,2.785,0.017,4.281c-0.5,2.245-1.404,4.011-2.341,4.7c0.551-1.366,0.925-2.795,1.113-4.254
	c0.416-3.021-0.041-5.637-1.229-7c-0.462-0.616-1.227-0.93-1.986-0.818c-0.826,0.159-1.574,0.604-2.107,1.259
	c-0.26-0.429-0.812-0.579-1.252-0.341c-2.58,1.022-4.221,4.027-4.391,8.038c-0.205,2.168,0.475,4.328,1.887,5.987
	c0.812,0.887,1.953,1.396,3.152,1.404c1.499-0.079,2.864-0.888,3.655-2.164c1.358-0.134,2.589-0.867,3.354-2
	c-0.119,2.493-0.312,4.939-0.568,7.301c-2.219,1.742-3.997,3.982-5.189,6.539c-1.982,3.934-1.765,7.545-0.723,9.239
	c0.322,0.642,0.961,1.065,1.678,1.114c3.088,0,5.57-8.574,6.775-16.016c2.555-1.479,5.49-2.164,8.434-1.97
	c2.443-0.009,4.828,0.755,6.811,2.183c-3.192,0.988-5.504,3.771-5.887,7.094c-0.273,1.569,0.133,3.182,1.123,4.43
	c0.883,0.996,2.188,1.514,3.51,1.395c1.666-0.043,3.24-0.769,4.354-2.008c1.444-1.791,2.11-4.086,1.851-6.373
	c-0.06-0.947-0.263-1.881-0.604-2.766c3.906,0.639,6.258,3.985,6.055,8.757c-0.314,5.247-4.638,9.354-9.894,9.408
	c-3,0-5.2-0.733-6.356-2.12c-0.842-1.062-1.16-2.447-0.871-3.771c0.026-0.145,0.059-0.27,0.082-0.379
	c0.137-0.307,0.116-0.66-0.054-0.95c-0.13-0.159-0.326-0.247-0.528-0.237c-0.133,0.004-0.263,0.021-0.389,0.055
	c-1.432,0.416-2.434,1.705-2.479,3.194c0,2.937,3.129,6.101,10,6.101c7.139,0,12.436-4.33,12.886-11.101
	C156.395,49.77,155.453,47.019,153.535,45.005z M118.577,24.468c-0.591,1.739-0.788,3.586-0.58,5.411
	c0.093,1.941,1.04,3.744,2.586,4.921c-0.663,0.442-1.556,0.295-2.041-0.338c-1.022-1.355-1.483-3.054-1.286-4.741
	C117.232,27.885,117.688,26.074,118.577,24.468z M122.958,29.207c-0.028,1.434-0.372,2.845-1.008,4.131
	c-1.171-0.72-1.665-2.5-1.726-3.916c-0.127-2.523,0.938-4.694,1.789-4.938c0.076,0.016,0.147,0.061,0.196,0.126
	C122.684,25.108,123.115,26.758,122.958,29.207z M130.286,35.306c-0.495,0.031-0.986-0.105-1.394-0.39l0.062-1.026
	c1.054-6.8,3.106-9.673,3.748-9.673c0.097,0.004,0.188,0.053,0.243,0.132c0.457,0.486,0.869,2.161,0.656,5.4
	c-0.248,3.483-1.49,5.562-3.32,5.562L130.286,35.306z M121.947,54.394c-0.123-0.031-0.227-0.116-0.28-0.231
	c-0.485-0.786-0.562-3.246,1.22-6.806c0.575-1.157,1.295-2.237,2.143-3.215c-1.036,6.637-2.495,9.972-3.079,10.256L121.947,54.394
	L121.947,54.394z M144.57,51.616c-0.521,0.579-1.258,0.911-2.036,0.916h-0.106c-0.727,0.022-1.425-0.286-1.898-0.837
	c-0.635-0.91-0.848-2.049-0.584-3.126c0.375-2.571,2.386-4.599,4.949-5c0.613,1.011,0.963,2.16,1.016,3.342
	c0.199,1.685-0.278,3.381-1.336,4.708v-0.003H144.57z M113.871,37.416c-0.706-0.257-1.436-1.93-0.9-8.443
	c0.289-3.707,0.408-5.851-0.484-6.815c-0.318-0.341-0.771-0.527-1.24-0.51c-2.145,0-4.206,2.606-5.646,5.731
	c0.026-2.315,0.18-4.628,0.461-6.926c2.25-1.08,4.062-2.904,5.119-5.163c1.818-3.574,1.584-7.381,0.41-9.294
	c-0.312-0.648-0.943-1.083-1.662-1.147c-2.715,0-5.229,5.687-6.433,14.523c-1.187,0.277-2.419,0.304-3.616,0.077
	c-0.303-0.053-0.6-0.132-0.89-0.235c1.794-1.251,2.878-3.288,2.913-5.475c0.17-1.631-0.342-3.259-1.412-4.5
	c-1.396-1.387-3.297-2.146-5.264-2.1c-0.119,0-0.24-0.006-0.361-0.006c-4.45,0-9.15,2.4-9.527,6.991
	c-0.386,4.034,3.191,6.384,6.651,8.658l0.7,0.457c3.306,2.218,6.231,4.527,5.763,8.347c-0.384,3.135-4.334,5.658-8.542,5.332
	c-2.012-0.102-3.895-1.029-5.2-2.562c-1.167-1.443-1.685-3.306-1.433-5.145c0.267-1.975,1.129-3.487,3.094-5.41
	c0.402-0.283,0.602-0.777,0.508-1.26c-0.178-0.366-0.609-0.533-0.986-0.381c-1.078,0.208-2.104,0.625-3.021,1.227
	c-1.399,1.368-2.218,3.222-2.283,5.178c-0.237,4.214,1.929,9.556,8.813,10.745c0.688,0.118,1.39,0.178,2.091,0.179
	c5.604,0,10.062-3.778,10.368-8.787c0.271-4.7-3.354-7.339-6.771-9.451l-0.375-0.226c-3.316-2.01-6.451-3.908-5.966-7.635
	c0.388-2.849,3.108-4.125,5.64-4.125c0.178,0,0.355,0.006,0.539,0.018c2.799,0.18,4.365,1.782,4.406,4.513
	c0.062,1.125-0.314,2.229-1.051,3.083c-0.252,0.287-0.604,0.466-0.984,0.5c-0.383-0.038-0.708-0.295-0.832-0.659
	c-0.227-0.707-0.249-1.462-0.062-2.181l0.081-0.25c0.188-0.315,0.203-0.704,0.039-1.033c-0.127-0.168-0.33-0.264-0.541-0.254
	c-0.131,0.004-0.262,0.021-0.389,0.053c-1.229,0.301-2.141,1.333-2.287,2.588c-0.086,2.378,1.342,5.12,5.604,5.689
	c1.451,0.209,2.927,0.195,4.374-0.04c-0.271,2.5-0.446,5.15-0.521,7.89c-0.033,1.627-0.062,2.582-0.082,3.3
	c-0.029,1.081-0.045,1.617-0.045,3.074c0,1.246,0.186,1.689,1.221,1.689c0.57,0,1.55-0.479,1.602-2.208
	c1.03-6.823,3.852-10.595,4.576-10.633c0.089,0.691,0.066,1.393-0.062,2.078c-0.101,0.949-0.22,2.13-0.25,3.55
	c-0.125,5.842,1.008,8.811,3.453,9.075c1.211,0.149,1.438-0.4,1.48-0.624c0.053-0.506-0.288-0.967-0.787-1.064V37.416
	L113.871,37.416z M106.383,18.101c0.977-6.274,2.444-9.839,2.989-10.085c0.14,0.1,0.243,0.244,0.292,0.408
	c0.615,2.246,0.322,4.643-0.816,6.674C108.279,16.282,107.434,17.312,106.383,18.101z M80.645,22.442l-0.147-0.192
	c-0.213-0.22-0.521-0.327-0.823-0.288c-0.871,0-2.3,0.415-2.428,1.511c-0.121,0.765-0.249,2.065-0.341,3.452
	c-0.654,5.235-2.2,8.129-3.025,8.129c-0.284,0.006-0.554-0.12-0.733-0.34c-1.069-1.212-1.183-5.218-0.341-11.9l0.017-0.272
	l-0.15-0.172c-0.208-0.195-0.492-0.289-0.775-0.255c-0.882,0-2.33,0.42-2.46,1.552c-0.262,2.266-0.326,4.551-0.19,6.828
	c-0.592,1.9-1.921,4.983-4.317,4.983c-0.651-0.017-1.266-0.301-1.7-0.786c-1.134-1.46-1.665-3.3-1.485-5.14
	c0.162-3.7,1.283-6.6,2.554-6.6c0.255-0.03,0.507,0.08,0.66,0.286c0.4,0.57,0.227,1.958-0.154,3.028l-0.085,0.227
	c-0.212,0.318-0.246,0.723-0.088,1.071c0.215,0.269,0.586,0.357,0.9,0.215c0.746-0.14,2.268-0.94,2.4-1.939
	c0.141-1.315-0.228-2.635-1.028-3.688c-0.575-0.614-1.387-0.95-2.227-0.921c-3.25,0-5.89,3.8-6.142,8.84
	c-0.011,0.323-0.008,0.636,0,0.941c-0.887,3.468-1.614,4.679-1.9,4.939c-0.238-0.4-0.552-2.32,0.433-7.49l0.017-0.282l-0.149-0.173
	c-0.235-0.212-0.55-0.313-0.865-0.276c-0.996-0.111-1.937,0.474-2.278,1.416c-0.05,0.289-0.083,0.581-0.1,0.873l-0.024,0.315
	c-0.553,3.1-1.664,4.723-2.477,4.723c-0.178-0.033-0.336-0.134-0.441-0.28c-0.668-0.755-1.243-2.725-0.93-5.268
	c0.409-3.416,1.8-5.711,3.449-5.711c0.369-0.051,0.741,0.072,1.007,0.332c0.232,0.596,0.205,1.263-0.076,1.838l-0.05,0.135
	c-0.245,0.364-0.289,0.827-0.116,1.23c0.223,0.257,0.581,0.35,0.9,0.233c0.751-0.14,2.27-1.026,2.4-2.031
	c0.072-0.879-0.225-1.749-0.82-2.4c-0.76-0.743-1.799-1.128-2.86-1.061c-2.827,0-6.365,2.138-7.02,8.2
	c-1.059,3.519-2.406,5.158-2.982,5.158c-0.762,0-1.956-2.252-2.253-7.254c2.364-4.032,4.17-8.367,5.367-12.886
	c0.824-3.547,1.377-9.306,0.025-11.009c-0.254-0.349-0.658-0.556-1.09-0.559c-3.947,0-7.127,12.153-7.669,20.868
	c-0.081,1.345-0.061,2.694,0.058,4.037c-0.884,4.186-2.549,6.853-3.315,6.853c-0.716,0-1.839-2.136-2.122-6.881
	c2.251-3.841,3.971-7.969,5.112-12.273c0.786-3.383,1.31-8.88,0.018-10.508c-0.247-0.338-0.639-0.539-1.057-0.541
	c-3.774,0-6.811,11.589-7.328,19.9c-0.348,6.009,1.305,10.023,2.826,11.634c0.518,0.629,1.272,1.016,2.085,1.07
	c1.842,0,3.5-2.5,4.574-5.107c0.963,3.124,2.6,5.128,4.281,5.128c1.282,0,2.661-1.237,3.876-3.44
	c0.728,2.059,2.158,3.127,3.394,3.127c0.054,0,0.109,0,0.17-0.007c1.179-0.1,2.307-1.016,3.258-2.606
	c0.384,2.143,1.215,3.414,2.3,3.414c1.318,0,2.429-1.844,3.229-3.771c0.832,1.985,2.742,3.308,4.893,3.388
	c2.064,0,4.039-1.473,5.54-4.091c0.923,3.044,2.593,3.539,3.58,3.539c0.987,0,1.945-0.712,2.814-2.049l-0.029,0.276
	c-2.476,2.82-4.388,6.089-5.631,9.63c-1.05,2.935-1.025,6.062,0.062,7.604c0.345,0.555,0.947,0.898,1.6,0.912
	c1.851,0,4.649-2.535,7.579-24.439c0.459-3.182,0.801-6.653,0.801-6.653L80.645,22.442z M32.658,24.43
	c0.36-6.165,2.415-14.455,3.449-15.846c0.291,0.879,0.341,4.073-0.64,7.848c-0.731,2.734-1.671,5.408-2.813,7.998H32.658z
	 M41.399,23.942c0.359-6.57,2.574-15.468,3.662-16.826c0.321,0.863,0.4,4.251-0.656,8.3c-0.78,2.916-1.787,5.767-3.01,8.526H41.399z
	 M75.667,39.533c-1.115,7.68-2.342,10.906-2.905,11.133c-0.132-0.039-0.244-0.129-0.311-0.25c-0.465-0.67-0.614-2.328,0.369-4.973
	c0.764-2.053,1.716-4.031,2.843-5.91H75.667z M62.618,41.733c-0.182-0.178-0.418-0.289-0.671-0.317
	c-0.318,0.029-0.583,0.254-0.664,0.562c-0.073,0.162-0.154,0.32-0.244,0.474c-0.6,1.076-2.532,1.622-5.755,1.622
	c-4.425-0.168-8.831-0.67-13.181-1.5c-5.3-0.9-11.342-1.861-16.306-2.207c1.067-5.17,1.743-10.413,2.024-15.684
	c0-0.594-0.9-0.727-1.22-0.727c-0.4,0-1.707,0.165-1.785,2.288l-0.133,2.549c-0.466,2.513-1.867,6.76-6.016,6.965
	c-0.093,0-0.185,0.006-0.277,0.006l0,0c-1.567,0.025-3.064-0.65-4.081-1.842c-1.966-2.223-2.794-6.369-2.215-11.089
	c0.203-1.629,0.564-3.234,1.078-4.793c6.623-0.153,12.936-3.159,14.472-6.93c0.603-1.266,0.53-2.749-0.195-3.949
	c-0.9-1.34-2.717-1.936-4.95-1.636c-4.624,0.6-9.214,4.479-11.788,9.939c-2.911-0.823-5.416-3.3-4.78-6.645
	c0.917-4.905,7.433-6.508,9.575-6.508c0.211-0.012,0.423,0.012,0.627,0.07c0.297,0.111,0.612,0.169,0.929,0.17
	c0.496,0.086,0.983-0.19,1.163-0.659c0.163-0.721-0.817-1.186-1.195-1.366c-0.369-0.134-0.76-0.193-1.152-0.172
	c-2.919,0-11.343,2.038-12.655,8.6c-0.428,1.793-0.096,3.683,0.917,5.222c1.386,1.842,3.404,3.105,5.666,3.549
	c-0.623,1.781-1.034,3.628-1.224,5.505c-0.539,4.97,0.538,9.365,2.956,12.06c1.622,1.831,3.962,2.862,6.408,2.822h0.3
	c2.209-0.079,4.298-1.022,5.819-2.626c-0.192,1.609-0.467,3.207-0.822,4.789c-0.362-0.008-0.717-0.012-1.064-0.012
	c-5.931,0-9.245,1.228-10.428,3.856c-0.686,1.401-0.579,3.062,0.28,4.364c1.17,1.733,3.127,2.771,5.219,2.765
	c0.325,0,0.648-0.026,0.968-0.08c3.221-0.575,5.467-3.344,7.048-8.7c5.491,0.365,10.948,1.136,16.325,2.307
	c0.975,0.199,1.958,0.412,2.939,0.621c5.341,1.137,10.386,2.21,14.055,2.21c2.11,0,3.572-0.365,4.466-1.112
	c0.68-0.515,1.064-1.33,1.029-2.182c-0.074-1.037-0.613-1.984-1.466-2.577L62.618,41.733z M18.53,48.566
	c-0.351,0.123-0.72,0.187-1.092,0.189c-0.956,0.024-1.849-0.474-2.33-1.301c-0.482-0.97-0.393-2.125,0.231-3.01
	c0.541-0.877,2.266-1.914,7.353-2c-1.045,3.449-2.446,5.505-4.166,6.123L18.53,48.566z M21.857,7.958
	c0.275-0.051,0.555-0.078,0.836-0.08c0.571-0.057,1.133,0.175,1.5,0.617c0.321,0.712,0.276,1.537-0.12,2.21
	c-1.309,2.744-6.05,4.726-10,5.039C16.021,11.579,19.09,8.487,21.857,7.958z"/>
<path fill="#FFFFFF" d="M17.221,318.161c-8.836,0-16,7.164-16,16s7.164,16,16,16c8.836,0,16-7.164,16-16
	S26.058,318.161,17.221,318.161z M24.636,330.182c0.011,0.159,0.011,0.312,0.011,0.471c0.003,1.988-0.566,3.937-1.64,5.606
	c-3.088,4.813-9.494,6.212-14.306,3.122c0.289,0.032,0.579,0.049,0.869,0.051c1.641,0.004,3.234-0.545,4.524-1.561
	c-1.558-0.029-2.924-1.046-3.4-2.53c0.226,0.044,0.455,0.067,0.685,0.07c0.324-0.002,0.647-0.046,0.96-0.13
	c-1.698-0.346-2.919-1.838-2.922-3.57c0-0.02,0-0.029,0-0.05c0.506,0.28,1.072,0.438,1.65,0.46c-1.601-1.072-2.093-3.203-1.127-4.87
	c1.847,2.28,4.577,3.665,7.507,3.812c-0.294-1.267,0.108-2.592,1.055-3.479c1.467-1.379,3.774-1.309,5.152,0.16
	c0.815-0.165,1.597-0.469,2.313-0.893c-0.271,0.848-0.84,1.562-1.6,2.021c0.72-0.085,1.423-0.275,2.086-0.566
	c0-0.002,0-0.002,0.001-0.002l0.005-0.002c-0.002,0.002-0.004,0.002-0.006,0.004C25.965,329.032,25.35,329.669,24.636,330.182z"/>
<g>
	<path fill="#FFFFFF" d="M18.481,374.312c-2.632,0.682-5.318-0.898-6-3.53c-0.21-0.81-0.21-1.66,0-2.47h-1.379v6.777
		c0,0.336,0.271,0.609,0.608,0.609c0.001,0,0.002,0,0.003,0h11.065c0.336,0.002,0.61-0.271,0.612-0.604c0-0.004,0-0.005,0-0.006
		v-6.777h-1.38C22.693,370.941,21.113,373.629,18.481,374.312z"/>
	<path fill="#FFFFFF" d="M17.248,372.381c0.142,0.012,0.285,0.012,0.428,0c1.568-0.117,2.744-1.484,2.626-3.054
		c-0.118-1.569-1.485-2.744-3.054-2.626c-1.558,0.008-2.818,1.27-2.826,2.826C14.414,371.096,15.679,372.374,17.248,372.381z"/>
	<path fill="#FFFFFF" d="M22.812,363.393h-1.865c-0.001,0-0.002,0-0.003,0c-0.336,0-0.609,0.272-0.608,0.608v1.86v0.002
		c0.001,0.338,0.275,0.609,0.611,0.607h1.865c0.002,0,0.003,0,0.005,0c0.335-0.003,0.607-0.273,0.605-0.609v-1.86
		c0-0.001,0-0.003,0-0.005C23.422,363.66,23.148,363.391,22.812,363.393z"/>
	<path fill="#FFFFFF" d="M17.221,354.411c-8.836,0-16,7.164-16,16s7.164,16,16,16c8.836,0,16-7.164,16-16
		S26.058,354.411,17.221,354.411z M25.13,375.661c0,0.002,0,0.004,0,0.006c0,0.963-0.781,1.744-1.745,1.744h-0.001H11.057
		c-0.002,0-0.003,0-0.005,0c-0.964-0.002-1.743-0.786-1.74-1.75v-12.31c0.001-0.963,0.783-1.742,1.745-1.74h12.329
		c0.962-0.002,1.743,0.777,1.745,1.74L25.13,375.661L25.13,375.661z"/>
</g>
<path fill="#FFFFFF" d="M17.221,390.369c-8.836,0-16,7.164-16,16s7.164,16,16,16c8.836,0,16-7.164,16-16
	S26.058,390.369,17.221,390.369z M21.603,400.374h-1.765c-1.281,0-1.366,0.37-1.366,1.26v1.86H21.5l-0.285,3.09h-2.743v9.29h-3.738
	v-9.29H12.84v-3.09h1.889v-2.2c0-2.8,0.788-4.34,4.082-4.34h2.792V400.374z"/>
<g>
	<path fill="#FFFFFF" d="M19.278,438.667c0-1.422-1.359-1.422-1.359-1.422l-1.741-0.021v2.88l1.658-0.02
		C17.836,440.084,19.278,440.089,19.278,438.667z"/>
	<path fill="#FFFFFF" d="M19.118,443.073c-0.275-0.089-0.562-0.133-0.853-0.13c-0.362-0.013-0.849-0.013-1.456-0.013h-0.63v3.4
		h0.185c0.888,0,1.5-0.011,1.842-0.021c0.358-0.014,0.712-0.096,1.041-0.237c0.285-0.115,0.525-0.322,0.68-0.59
		c0.145-0.271,0.219-0.573,0.214-0.883c0.021-0.349-0.069-0.691-0.255-0.987C19.692,443.358,19.425,443.169,19.118,443.073z"/>
	<path fill="#FFFFFF" d="M17.221,426.025c-8.836,0-16,7.16-16,16c0,8.837,7.164,16,16,16c8.836,0,16-7.163,16-16
		C33.221,433.188,26.058,426.025,17.221,426.025z M23.274,446.443c0,0-0.855,2.158-4.293,2.38h-6.195v-13.59l5.289-0.007
		c0,0,1.875-0.062,2.953,0.484c1.078,0.546,1.734,1.234,1.734,2.812c0,1.576-1.086,2.352-1.879,2.774v0.07
		c0,0,1.707,0.262,2.52,1.84C23.403,443.214,24.052,444.517,23.274,446.443z"/>
</g>
<path fill="#292929" d="M25.375,124.778l-4.625-4.75c-0.286-0.295-0.709-0.372-1.07-0.236c0.92-1.08,1.479-2.477,1.479-4.004
	c0-3.412-2.776-6.188-6.188-6.188c-3.412,0-6.188,2.775-6.188,6.188s2.776,6.188,6.188,6.188c1.589,0,3.035-0.607,4.132-1.595
	c-0.129,0.351-0.063,0.757,0.214,1.042l4.625,4.75c0.196,0.202,0.456,0.303,0.716,0.303c0.251,0,0.503-0.095,0.698-0.283
	C25.752,125.807,25.76,125.174,25.375,124.778z M14.971,119.976c-2.309,0-4.188-1.879-4.188-4.188s1.878-4.188,4.188-4.188
	s4.188,1.879,4.188,4.188S17.28,119.976,14.971,119.976z"/>
<g>
	<path fill="#292929" d="M24.19,180.541H12.94c-1.654,0-3,1.346-3,3v1.312h2v-1.312c0-0.551,0.449-1,1-1h11.25c0.551,0,1,0.449,1,1
		v13.438c0,0.553-0.449,1-1,1H12.94c-0.551,0-1-0.447-1-1v-1.25h-2v1.25c0,1.654,1.346,3,3,3h11.25c1.654,0,3-1.346,3-3v-13.438
		C27.19,181.887,25.844,180.541,24.19,180.541z"/>
	<polygon fill="#292929" points="13.581,196.041 19.362,190.26 13.581,184.479 13.581,187.729 7.252,187.729 7.252,192.791 
		13.581,192.791 	"/>
</g>
<g>
	<polygon fill="#E24525" points="12.071,293.876 26.237,294.001 25.071,304.834 13.612,304.793 	"/>
	<g>
		<path fill="#292929" d="M27.469,292.848c-0.218-0.236-0.525-0.371-0.847-0.371H12.845l-0.235-1.041
			c-0.119-0.521-0.585-0.896-1.122-0.896H7.82c-0.635,0-1.15,0.517-1.15,1.149c0,0.635,0.516,1.148,1.15,1.148h2.748l0.174,0.771
			c-0.001,0.039-0.017,0.074-0.014,0.11l0.775,9.218c0,1.735,1.413,3.149,3.15,3.149h9.188c1.737,0,3.15-1.414,3.146-3.055
			l0.78-9.312C27.795,293.4,27.687,293.085,27.469,292.848z M24.691,302.938c0,0.472-0.381,0.853-0.85,0.853h-9.188
			c-0.469,0-0.85-0.381-0.854-0.945l-0.676-8.063h12.248L24.691,302.938z"/>
		<circle fill="#292929" cx="14.561" cy="308.563" r="1.969"/>
		<circle fill="#292929" cx="23.373" cy="308.563" r="1.969"/>
	</g>
</g>
<path fill="#FFFFFF" d="M25.375,89.283l-4.625-4.75c-0.286-0.295-0.709-0.372-1.07-0.236c0.92-1.08,1.479-2.477,1.479-4.004
	c0-3.412-2.776-6.188-6.188-6.188c-3.412,0-6.188,2.775-6.188,6.188s2.776,6.188,6.188,6.188c1.589,0,3.035-0.607,4.132-1.595
	c-0.129,0.351-0.063,0.757,0.214,1.042l4.625,4.75c0.196,0.202,0.456,0.303,0.716,0.303c0.251,0,0.503-0.095,0.698-0.283
	C25.752,90.311,25.76,89.678,25.375,89.283z M14.971,84.48c-2.309,0-4.188-1.879-4.188-4.188s1.878-4.188,4.188-4.188
	s4.188,1.879,4.188,4.188S17.28,84.48,14.971,84.48z"/>
<g>
	<path fill="#FFFFFF" d="M24.19,144.792H12.94c-1.654,0-3,1.346-3,3v1.312h2v-1.312c0-0.551,0.449-1,1-1h11.25c0.551,0,1,0.449,1,1
		v13.438c0,0.553-0.449,1-1,1H12.94c-0.551,0-1-0.447-1-1v-1.25h-2v1.25c0,1.654,1.346,3,3,3h11.25c1.654,0,3-1.346,3-3v-13.438
		C27.19,146.138,25.844,144.792,24.19,144.792z"/>
	<polygon fill="#FFFFFF" points="13.581,160.292 19.362,154.511 13.581,148.729 13.581,151.979 7.252,151.979 7.252,157.042 
		13.581,157.042 	"/>
</g>
<g>
	<g>
		<path fill="#FFFFFF" d="M27.469,219.638c-0.218-0.236-0.525-0.371-0.847-0.371H12.845l-0.235-1.041
			c-0.119-0.523-0.585-0.896-1.122-0.896H7.82c-0.635,0-1.15,0.516-1.15,1.15s0.516,1.15,1.15,1.15h2.748l0.174,0.771
			c-0.001,0.037-0.017,0.074-0.014,0.111l0.775,9.217c0,1.736,1.413,3.15,3.15,3.15h9.188c1.737,0,3.15-1.414,3.146-3.055
			l0.78-9.312C27.795,220.192,27.687,219.876,27.469,219.638z M24.691,229.729c0,0.469-0.381,0.85-0.85,0.85h-9.188
			c-0.469,0-0.85-0.381-0.854-0.945l-0.676-8.066h12.248L24.691,229.729z"/>
		<circle fill="#FFFFFF" cx="14.561" cy="235.354" r="1.969"/>
		<circle fill="#FFFFFF" cx="23.373" cy="235.354" r="1.969"/>
	</g>
</g>
<g>
	<g>
		<path fill="#292929" d="M27.469,255.43c-0.218-0.236-0.525-0.371-0.847-0.371H12.845l-0.235-1.041
			c-0.119-0.523-0.585-0.896-1.122-0.896H7.82c-0.635,0-1.15,0.516-1.15,1.15s0.516,1.15,1.15,1.15h2.748l0.174,0.771
			c-0.001,0.037-0.017,0.074-0.014,0.111l0.775,9.217c0,1.736,1.413,3.15,3.15,3.15h9.188c1.737,0,3.15-1.414,3.146-3.055
			l0.78-9.312C27.795,255.984,27.687,255.668,27.469,255.43z M24.691,265.521c0,0.469-0.381,0.85-0.85,0.85h-9.188
			c-0.469,0-0.85-0.381-0.854-0.945l-0.676-8.066h12.248L24.691,265.521z"/>
		<circle fill="#292929" cx="14.561" cy="271.146" r="1.969"/>
		<circle fill="#292929" cx="23.373" cy="271.146" r="1.969"/>
	</g>
</g>
<path id="Лого" fill="#FFFFFF" d="M47.8,562.07c0.187-0.008,0.372-0.041,0.55-0.104v1.33c-0.373,0.146-0.77,0.217-1.17,0.21
	c-0.703,0.062-1.369-0.325-1.66-0.97c-0.883,0.717-1.993,1.097-3.13,1.07c-1.426,0.166-2.717-0.856-2.883-2.282
	c-0.01-0.086-0.016-0.172-0.017-0.258c0-2.13,1.97-2.78,3.7-2.78c0.727,0.008,1.45,0.089,2.16,0.24v-0.29
	c0-1.04-0.76-1.771-2.18-1.771c-1.03,0.001-2.049,0.223-2.99,0.644v-1.69c1.023-0.354,2.097-0.539,3.18-0.55
	c2.35,0,3.84,1.12,3.84,3.63v2.971c-0.04,0.291,0.165,0.562,0.456,0.603C47.704,562.076,47.752,562.076,47.8,562.07 M41.39,560.95
	c0.056,0.742,0.704,1.298,1.446,1.241c0.035-0.002,0.069-0.006,0.104-0.015c0.904,0.009,1.772-0.351,2.41-0.987v-1.399
	c-0.592-0.124-1.195-0.193-1.8-0.21C42.5,559.58,41.39,559.91,41.39,560.95 M53.69,554.87c0.896-0.023,1.781,0.197,2.56,0.64v1.69
	c-0.679-0.457-1.481-0.697-2.3-0.69c-1.507-0.113-2.823,1.015-2.939,2.521c-0.116,1.508,1.011,2.822,2.519,2.938
	c0.13,0.013,0.261,0.014,0.391,0.002c0.848-0.004,1.681-0.225,2.42-0.64v1.71c-0.862,0.396-1.802,0.59-2.75,0.57
	c-2.31,0.16-4.312-1.583-4.472-3.896c-0.01-0.136-0.012-0.271-0.009-0.405c-0.082-2.374,1.775-4.363,4.148-4.446
	C53.402,554.858,53.546,554.86,53.69,554.87 M65.811,562.07c0.187-0.008,0.371-0.041,0.549-0.104v1.33
	c-0.373,0.146-0.77,0.217-1.17,0.21c-0.703,0.062-1.368-0.325-1.66-0.97c-0.883,0.717-1.992,1.097-3.129,1.07
	c-1.427,0.166-2.717-0.856-2.883-2.282c-0.01-0.086-0.016-0.172-0.017-0.258c0-2.13,1.971-2.78,3.689-2.78
	c0.73,0.008,1.457,0.089,2.17,0.24v-0.29c0-1.04-0.77-1.771-2.18-1.771c-1.03,0.001-2.049,0.223-2.99,0.644v-1.69
	c1.023-0.354,2.098-0.54,3.181-0.55c2.351,0,3.829,1.12,3.829,3.63v2.971c-0.035,0.298,0.176,0.564,0.472,0.604
	C65.717,562.077,65.764,562.076,65.811,562.07 M59.4,560.95c0.057,0.742,0.703,1.298,1.445,1.241
	c0.035-0.002,0.07-0.006,0.104-0.015c0.904,0.006,1.771-0.352,2.41-0.987v-1.399c-0.592-0.124-1.194-0.193-1.799-0.21
	C60.5,559.58,59.4,559.91,59.4,560.95 M76.07,551.29v12.103h-1.65v-1.319c-0.75,0.995-1.934,1.566-3.18,1.54
	c-2.414-0.146-4.252-2.224-4.105-4.636c0.133-2.209,1.896-3.974,4.105-4.104c1.138-0.031,2.232,0.439,2.99,1.29v-4.87L76.07,551.29
	L76.07,551.29z M71.561,556.49c-1.52,0.101-2.67,1.413-2.568,2.932c0.091,1.379,1.189,2.479,2.568,2.568
	c1.152-0.002,2.194-0.69,2.649-1.75v-2.021C73.746,557.171,72.707,556.493,71.561,556.49 M82.07,554.87c3.3,0,4.438,2.66,3.91,5.061
	h-6.24c0.209,1.489,1.66,2.109,3.18,2.109c0.91,0.005,1.809-0.197,2.631-0.59v1.59c-0.941,0.4-1.958,0.595-2.98,0.57
	c-2.541,0-4.697-1.45-4.697-4.37c-0.12-2.29,1.643-4.244,3.93-4.364C81.891,554.871,81.98,554.869,82.07,554.87 M82.16,556.4
	c-1.25-0.099-2.34,0.839-2.436,2.089c-0.002,0.021-0.004,0.04-0.004,0.061h4.6c0.105-1.079-0.678-2.042-1.758-2.147
	C82.43,556.386,82.294,556.386,82.16,556.4 M87.859,563.39v-8.301H89.5v1.04c0.708-0.786,1.711-1.243,2.77-1.26
	c1.045-0.072,2.041,0.438,2.59,1.33c0.748-0.816,1.795-1.296,2.9-1.33c1.68-0.067,3.094,1.239,3.162,2.918
	c0.006,0.138,0.002,0.275-0.012,0.412v5.188h-1.85v-5.141c0.09-0.866-0.539-1.643-1.404-1.73c-0.078-0.011-0.157-0.013-0.236-0.009
	c-0.818,0.052-1.572,0.46-2.061,1.12c0.021,0.188,0.037,0.379,0.041,0.569v5.188H93.55v-5.14c0.091-0.866-0.538-1.644-1.403-1.733
	c-0.078-0.008-0.156-0.011-0.234-0.007c-0.893,0.067-1.701,0.539-2.2,1.28v5.6h-1.853V563.39L87.859,563.39z M109.07,555.09H111
	l-3.891,9.42c-0.889,2.16-2.069,2.894-3.33,2.894c-0.367-0.009-0.732-0.058-1.09-0.144v-1.58c0.272,0.087,0.562,0.133,0.851,0.133
	c0.899,0,1.569-0.643,2.05-1.939l0.18-0.41l-3.938-8.37h1.971l2.801,6.263L109.07,555.09z M41.93,536.76v4.724
	c0.706-0.724,1.67-1.132,2.68-1.144c1.781-0.104,3.312,1.251,3.418,3.032c0.007,0.119,0.008,0.239,0.001,0.358v5.13h-1.85v-4.894
	c0.108-0.986-0.605-1.877-1.594-1.981c-0.112-0.016-0.225-0.017-0.336-0.005c-0.954,0.057-1.82,0.573-2.32,1.39v5.49h-1.85v-12.104
	L41.93,536.76L41.93,536.76z M53.1,537.61v2.96h3.01v1.62H53.1v3.8c0,1.09,0.5,1.45,1.57,1.45c0.575-0.001,1.145-0.109,1.68-0.32
	v1.59c-0.719,0.242-1.472,0.363-2.23,0.36c-1.391,0.177-2.662-0.811-2.838-2.199c-0.022-0.176-0.026-0.354-0.012-0.53v-4.147h-1.49
	v-1.62h1.49v-2.511L53.1,537.61z M58.471,548.86v-8.29h1.639v1.029c0.709-0.787,1.713-1.243,2.771-1.263
	c1.042-0.065,2.038,0.443,2.591,1.33c0.752-0.812,1.801-1.293,2.909-1.33c1.683-0.059,3.094,1.258,3.152,2.94
	c0.005,0.134,0.001,0.267-0.013,0.397v5.183h-1.85v-5.131c0.092-0.87-0.539-1.649-1.41-1.741c-0.076-0.01-0.152-0.012-0.23-0.009
	c-0.818,0.055-1.573,0.469-2.059,1.131c0.022,0.188,0.035,0.379,0.039,0.567v5.183h-1.85v-5.131c0.092-0.87-0.539-1.649-1.41-1.741
	c-0.076-0.01-0.153-0.012-0.23-0.009c-0.889,0.069-1.697,0.542-2.199,1.278v5.603L58.471,548.86L58.471,548.86z M74.23,548.86h1.84
	v-12.104h-1.84V548.86z M18.02,535.34l-0.15-0.02l-14.483,1.52v26.552L17.87,572l14.49-8.608V536.84L18.02,535.34z M30.46,562.311
	l-12.59,7.487l-12.588-7.487v-10.882l12.538,7.461l0.02,1.352l-8.6-5.12l-0.013,1.32l8.634,5.18l0.02,1.39l-8.63-5.13l-0.012,1.312
	l8.632,5.188l8.72-5.22v-1.311h-0.01v-4.29l3.88-2.319L30.46,562.311L30.46,562.311z M30.45,549.83l-3.44,2.03l-1.59,0.938
	l-7.59-4.51l-0.01,1.312l6.48,3.857l-0.06,0.03l-0.13,0.08l-0.93,0.54l-5.35-3.183l-0.01,1.312l4.22,2.521l-0.99,0.66l-0.03,0.021
	l-3.19-1.882l-0.01,1.312l2.09,1.229l-2.13,1.279l-12.471-7.41L17.8,542.46l0,0L30.45,549.83z M30.46,548.51l-12.66-7.46l0,0
	L5.282,548.5v-9.95l12.588-1.316l12.59,1.316V548.51L30.46,548.51z"/>
<path fill="#FFFFFF" d="M24.489,474.711c0-5.103-5.438-5.927-7.268-1.771c-1.829-4.154-7.268-3.33-7.268,1.771
	c0,4.425,6.665,7.905,7.229,8.191l0.022,0.025c0,0,0.014-0.007,0.017-0.009c0.002,0.002,0.017,0.009,0.017,0.009l0.003-0.019
	C17.623,482.72,24.489,479.203,24.489,474.711z"/>
<polygon fill="#FFFFFF" points="52.578,331.223 50.562,328.32 50.167,328.666 51.524,331.229 50.167,333.791 50.562,334.136 
	52.578,331.234 52.565,331.229 "/>
<polygon fill="#FFFFFF" points="54.906,331.223 52.89,328.32 52.495,328.666 53.852,331.229 52.495,333.791 52.89,334.136 
	54.906,331.234 54.893,331.229 "/>
<polygon fill="#FFFFFF" points="19,491.75 14.975,496.332 10.949,491.75 "/>
<polygon fill="#333333" points="21.333,512.917 17.308,517.499 13.282,512.917 "/>
</svg>
