<svg xmlns="http://www.w3.org/2000/svg" width="132.031" height="18.94" viewBox="0 0 132.031 18.94">
  <defs>
    <style>
      .cls-1 {
        fill: #849d8f;
        fill-rule: evenodd;
        opacity: 0.8;
      }
    </style>
  </defs>
  <path id="Твитер" class="cls-1" d="M199.832,2370.48a3.1,3.1,0,0,0-.757-2.2,3.7,3.7,0,0,0-2.016-1.09v-0.07a2.881,2.881,0,0,0,1.371-1.14,3.211,3.211,0,0,0,.5-1.77,3.133,3.133,0,0,0-.362-1.52,2.6,2.6,0,0,0-1.091-1.05,4.522,4.522,0,0,0-1.446-.48,17.993,17.993,0,0,0-2.269-.11h-4.8v13.59H194.4a8.909,8.909,0,0,0,2.332-.25,4.783,4.783,0,0,0,1.686-.86,3.684,3.684,0,0,0,1.032-1.27,3.909,3.909,0,0,0,.383-1.78h0Zm-4.372-5.59a1.517,1.517,0,0,0-.169-0.67,1,1,0,0,0-.527-0.5,2.111,2.111,0,0,0-.8-0.17c-0.308,0-.766-0.01-1.374-0.01h-0.237v2.88h0.43c0.583,0,.994-0.01,1.228-0.02a2.044,2.044,0,0,0,.727-0.19,1.129,1.129,0,0,0,.563-0.53,1.9,1.9,0,0,0,.157-0.79h0Zm0.856,5.53a1.673,1.673,0,0,0-.255-0.99,1.533,1.533,0,0,0-.767-0.54,2.658,2.658,0,0,0-.853-0.13c-0.362-.01-0.849-0.01-1.456-0.01h-0.63v3.4h0.184c0.888,0,1.5-.01,1.842-0.02a2.867,2.867,0,0,0,1.041-.24,1.381,1.381,0,0,0,.68-0.59A1.813,1.813,0,0,0,196.316,2370.42Zm-40.678,6.8v-9.29h2.743l0.285-3.09h-3.028l0-1.86c0-.89.085-1.26,1.367-1.26h1.764v-3.42h-2.792c-3.294,0-4.082,1.54-4.082,4.34v2.2h-1.889v3.09H151.9v9.29h3.738Zm-33.5-1.38a1.745,1.745,0,0,0,1.745-1.75v-12.31a1.743,1.743,0,0,0-1.745-1.74H109.809a1.743,1.743,0,0,0-1.745,1.74v12.31a1.745,1.745,0,0,0,1.745,1.75h12.328Zm-1.375-9.1a4.922,4.922,0,1,1-9.529,0h-1.379v6.78a0.609,0.609,0,0,0,.611.61h11.065a0.609,0.609,0,0,0,.612-0.61v-6.78h-1.38ZM116,2365.13a2.848,2.848,0,1,1,0,5.68A2.84,2.84,0,0,1,116,2365.13Zm3.7-3.31h1.865a0.608,0.608,0,0,1,.611.61v1.86a0.608,0.608,0,0,1-.611.61H119.7a0.609,0.609,0,0,1-.611-0.61v-1.86A0.609,0.609,0,0,1,119.7,2361.82Zm-34.13.16a7.331,7.331,0,0,1-2.092.57,3.663,3.663,0,0,0,1.6-2.02,7.4,7.4,0,0,1-2.313.89,3.645,3.645,0,0,0-6.207,3.32,10.316,10.316,0,0,1-7.507-3.81,3.655,3.655,0,0,0,1.127,4.87,3.68,3.68,0,0,1-1.65-.46c0,0.02,0,.03,0,0.05a3.651,3.651,0,0,0,2.922,3.57,3.789,3.789,0,0,1-.96.13,3.861,3.861,0,0,1-.685-0.07,3.643,3.643,0,0,0,3.4,2.53,7.29,7.29,0,0,1-4.524,1.56,8.291,8.291,0,0,1-.869-0.05,10.354,10.354,0,0,0,15.946-8.73c0-.16,0-0.31-0.011-0.47A7.33,7.33,0,0,0,85.565,2361.98Z" transform="translate(-67.813 -2358.28)"/>
</svg>
